<svg width="196" height="66" viewBox="0 0 196 66" fill="none" xmlns="http://www.w3.org/2000/svg">
<path d="M10.8984 57.4746C6.24024 57.4746 2.70703 55.2949 1.08984 52.0254L4.60547 49.5117C5.87109 51.7266 8.22656 52.9922 10.9512 52.9922C14.1328 52.9922 16.541 51.4629 16.541 49.3008C16.541 46.6816 12.8145 45.0996 9.50977 43.6758C6.1875 42.1992 2.49609 40.4766 2.49609 36.0293C2.49609 31.3887 6.52148 28.1543 11.6191 28.1543C15.6621 28.1543 18.6855 30.1055 19.8457 33.2168L16.541 35.502C15.6621 33.5859 13.7109 32.5137 11.6543 32.5137C9.05273 32.5137 6.97852 34.1309 6.97852 36.1348C6.97852 38.3496 9.59766 39.1406 13.043 40.6172C17.5254 42.5859 21.0059 44.748 21.0059 49.2129C21.0059 54.2402 16.6465 57.4746 10.8984 57.4746ZM23.4844 45.1348L23.4844 41.2324L37.3711 41.2324L37.3711 45.1348L23.4844 45.1348ZM54.8086 57.457C46.7754 57.457 40.1133 50.8477 40.1133 42.8496C40.1133 34.8691 46.7754 28.1719 54.7383 28.1719C58.4121 28.2246 61.8047 29.7891 64.582 32.4961L61.998 35.9941C60.0117 34.0078 57.4277 32.6895 54.6504 32.6895C49.5176 32.6895 44.6133 37.1895 44.6133 42.8672C44.6133 48.5801 49.5879 52.9922 54.668 52.9922C57.5684 52.9922 60.0645 51.5508 62.0156 49.6172L64.582 53.2031C62.1387 55.6113 59.0273 57.457 54.8086 57.457ZM80.1563 57.457C72.1055 57.457 65.5313 50.8828 65.5313 42.8672C65.5313 34.7812 72.1055 28.1719 80.1738 28.1719C88.2246 28.1719 94.834 34.7812 94.834 42.8672C94.834 50.8828 88.2246 57.457 80.1563 57.457ZM80.1563 52.957C85.7461 52.957 90.334 48.4043 90.334 42.832C90.334 37.2246 85.7461 32.6543 80.1563 32.6543C74.5664 32.6543 70.0137 37.2246 70.0137 42.832C70.0137 48.4043 74.5664 52.957 80.1563 52.957ZM112.184 57.457C104.133 57.457 97.5586 50.8828 97.5586 42.8672C97.5586 34.7812 104.133 28.1719 112.201 28.1719C120.252 28.1719 126.861 34.7812 126.861 42.8672C126.861 50.8828 120.252 57.457 112.184 57.457ZM112.184 52.957C117.773 52.957 122.361 48.4043 122.361 42.832C122.361 37.2246 117.773 32.6543 112.184 32.6543C106.594 32.6543 102.041 37.2246 102.041 42.832C102.041 48.4043 106.594 52.957 112.184 52.957ZM135.387 52.5703L148.025 52.5703L148.025 57L130.939 57L130.939 28.6641L135.387 28.6641L135.387 52.5703Z" fill="black"/>
<path d="M139 56.1083C139 56.3448 139.094 56.5716 139.26 56.7388C139.426 56.906 139.652 57 139.888 57H195.111C195.228 57.0009 195.344 56.9781 195.453 56.9327C195.561 56.8874 195.659 56.8205 195.741 56.736L195.746 56.7325C195.751 56.7271 195.751 56.7164 195.759 56.7111C195.847 56.6108 195.912 56.492 195.949 56.3633C195.961 56.3223 195.966 56.2831 195.973 56.2403C195.98 56.1957 196 56.1564 196 56.1101C196 56.0387 195.975 55.9763 195.959 55.9103C195.954 55.8854 195.965 55.8604 195.956 55.8354L190.347 38.5102C190.304 38.3761 190.23 38.2543 190.13 38.1553L159.747 7.62797C159.715 7.57803 159.692 7.52453 159.649 7.47995L153.012 0.81201C152.493 0.292009 151.79 0 151.057 0C150.324 0 149.621 0.292009 149.102 0.81201L139.809 10.1478C139.288 10.6721 139 11.3694 139 12.1113C139 12.8532 139.288 13.5523 139.809 14.0766L146.299 20.5965C146.331 20.6446 146.352 20.6999 146.395 20.7427L176.73 51.4252C176.834 51.5318 176.964 51.6098 177.107 51.6517L189.022 55.2184H139.888C139.771 55.2182 139.656 55.241 139.548 55.2856C139.44 55.3302 139.342 55.3958 139.26 55.4784C139.178 55.5611 139.112 55.6593 139.068 55.7673C139.023 55.8754 139 55.9913 139 56.1083ZM150.293 18.0909L178.138 45.7078L177.114 49.2781L148.278 20.115L150.293 18.0909ZM179.499 44.554L151.546 16.8318L155.872 12.4858L183.575 40.3916V44.554H179.499ZM184.681 38.981L157.127 11.225L158.971 9.37208L187.746 38.2819L184.681 38.981ZM179.805 46.3373H184.462C184.698 46.3373 184.923 46.2434 185.09 46.0762C185.256 45.9089 185.35 45.6821 185.35 45.4457V40.6574L188.912 39.8442L193.746 54.7708L178.679 50.2607L179.805 46.3373ZM140.775 12.1113C140.775 11.8456 140.878 11.5977 141.064 11.4087L150.357 2.07284C150.543 1.88673 150.794 1.78223 151.057 1.78223C151.319 1.78223 151.571 1.88673 151.757 2.07284L157.743 8.08629L147.052 18.8274L141.066 12.8139C140.973 12.7222 140.9 12.6128 140.85 12.4922C140.8 12.3715 140.775 12.242 140.775 12.1113Z" fill="black"/>
<path d="M139 56.1083C139 56.3448 139.094 56.5716 139.26 56.7388C139.426 56.906 139.652 57 139.888 57H195.111C195.228 57.0009 195.344 56.9781 195.453 56.9327C195.561 56.8874 195.659 56.8205 195.741 56.736L195.746 56.7325C195.751 56.7271 195.751 56.7164 195.759 56.7111C195.847 56.6108 195.912 56.492 195.949 56.3633C195.961 56.3223 195.966 56.2831 195.973 56.2403C195.98 56.1957 196 56.1564 196 56.1101C196 56.0387 195.975 55.9763 195.959 55.9103C195.954 55.8854 195.965 55.8604 195.956 55.8354L190.347 38.5102C190.304 38.3761 190.23 38.2543 190.13 38.1553L159.747 7.62797C159.715 7.57803 159.692 7.52453 159.649 7.47995L153.012 0.81201C152.493 0.292009 151.79 0 151.057 0C150.324 0 149.621 0.292009 149.102 0.81201L139.809 10.1478C139.288 10.6721 139 11.3694 139 12.1113C139 12.8532 139.288 13.5523 139.809 14.0766L146.299 20.5965C146.331 20.6446 146.352 20.6999 146.395 20.7427L176.73 51.4252C176.834 51.5318 176.964 51.6098 177.107 51.6517L189.022 55.2184H139.888C139.771 55.2182 139.656 55.241 139.548 55.2856C139.44 55.3302 139.342 55.3958 139.26 55.4784C139.178 55.5611 139.112 55.6593 139.068 55.7673C139.023 55.8754 139 55.9913 139 56.1083ZM150.293 18.0909L178.138 45.7078L177.114 49.2781L148.278 20.115L150.293 18.0909ZM179.499 44.554L151.546 16.8318L155.872 12.4858L183.575 40.3916V44.554H179.499ZM184.681 38.981L157.127 11.225L158.971 9.37208L187.746 38.2819L184.681 38.981ZM179.805 46.3373H184.462C184.698 46.3373 184.923 46.2434 185.09 46.0762C185.256 45.9089 185.35 45.6821 185.35 45.4457V40.6574L188.912 39.8442L193.746 54.7708L178.679 50.2607L179.805 46.3373ZM140.775 12.1113C140.775 11.8456 140.878 11.5977 141.064 11.4087L150.357 2.07284C150.543 1.88673 150.794 1.78223 151.057 1.78223C151.319 1.78223 151.571 1.88673 151.757 2.07284L157.743 8.08629L147.052 18.8274L141.066 12.8139C140.973 12.7222 140.9 12.6128 140.85 12.4922C140.8 12.3715 140.775 12.242 140.775 12.1113Z" fill="black"/>
<path d="M146 54H162.791H174.721H184" stroke="black" stroke-width="3"/>
<path d="M184 53.5L185 55L187.5 55.5L189 55L190 55.5" stroke="black" stroke-width="3"/>
</svg>
